<svg xmlns="http://www.w3.org/2000/svg" xmlns:xlink="http://www.w3.org/1999/xlink" width="1000" zoomAndPan="magnify" viewBox="0 0 750 749.999995" height="1000" preserveAspectRatio="xMidYMid meet" version="1.0"><defs><clipPath id="6f3c364a8a"><path d="M 168.75 168.75 L 581.25 168.75 L 581.25 581.25 L 168.75 581.25 Z M 168.75 168.75 " clip-rule="nonzero"/></clipPath></defs><g clip-path="url(#6f3c364a8a)"><path fill="#daa900" d="M 553.75 347.5 C 568.917969 347.5 581.25 335.167969 581.25 320 C 581.25 304.832031 568.917969 292.5 553.75 292.5 C 538.582031 292.5 526.25 304.832031 526.25 320 C 526.25 323.164062 526.894531 326.152344 527.878906 328.984375 L 489.453125 354.601562 C 481.898438 349.953125 473.011719 347.300781 463.507812 347.507812 C 460.449219 335.65625 449.667969 326.875 436.875 326.875 C 436.875 325.582031 436.757812 324.316406 436.683594 323.039062 L 505.496094 254.226562 C 509.585938 256.648438 514.289062 258.125 519.375 258.125 C 534.542969 258.125 546.875 245.792969 546.875 230.625 C 546.875 215.457031 534.542969 203.125 519.375 203.125 C 504.207031 203.125 491.875 215.457031 491.875 230.625 C 491.875 235.710938 493.351562 240.414062 495.773438 244.503906 L 433.472656 306.808594 C 429.195312 294.390625 421.105469 283.753906 410.558594 276.316406 L 428.144531 223.558594 C 428.769531 223.605469 429.367188 223.75 430 223.75 C 445.167969 223.75 457.5 211.417969 457.5 196.25 C 457.5 181.082031 445.167969 168.75 430 168.75 C 414.832031 168.75 402.5 181.082031 402.5 196.25 C 402.5 205.910156 407.527344 214.378906 415.074219 219.289062 L 398.304688 269.59375 C 391.101562 266.648438 383.242188 265 375 265 C 366.785156 265 358.933594 266.671875 351.707031 269.625 L 334.925781 219.289062 C 342.472656 214.378906 347.5 205.910156 347.5 196.25 C 347.5 181.082031 335.167969 168.75 320 168.75 C 304.832031 168.75 292.5 181.082031 292.5 196.25 C 292.5 211.417969 304.832031 223.75 320 223.75 C 320.632812 223.75 321.230469 223.605469 321.855469 223.5625 L 339.441406 276.324219 C 328.945312 283.726562 320.824219 294.335938 316.542969 306.820312 L 254.226562 244.503906 C 256.648438 240.414062 258.125 235.710938 258.125 230.625 C 258.125 215.457031 245.792969 203.125 230.625 203.125 C 215.457031 203.125 203.125 215.457031 203.125 230.625 C 203.125 245.792969 215.457031 258.125 230.625 258.125 C 235.710938 258.125 240.414062 256.648438 244.503906 254.226562 L 305.652344 315.375 C 289.992188 320.21875 277.675781 332.734375 273.464844 349.09375 C 268.816406 350.292969 264.53125 352.238281 260.585938 354.628906 L 222.113281 328.980469 C 223.105469 326.152344 223.75 323.164062 223.75 320 C 223.75 304.832031 211.417969 292.5 196.25 292.5 C 181.082031 292.5 168.75 304.832031 168.75 320 C 168.75 335.167969 181.082031 347.5 196.25 347.5 C 203.277344 347.5 209.628906 344.769531 214.488281 340.425781 L 249.605469 363.835938 C 242.085938 372.339844 237.5 383.421875 237.5 395.625 C 237.5 398.726562 237.824219 401.742188 238.378906 404.6875 L 218.875 414.433594 C 213.917969 407.238281 205.632812 402.5 196.25 402.5 C 181.082031 402.5 168.75 414.832031 168.75 430 C 168.75 445.167969 181.082031 457.5 196.25 457.5 C 211.417969 457.5 223.75 445.167969 223.75 430 C 223.75 429.148438 223.570312 428.335938 223.496094 427.503906 L 242.945312 417.78125 C 250.980469 433.183594 267.078125 443.75 285.625 443.75 L 296.527344 443.75 L 244.503906 495.773438 C 240.414062 493.351562 235.710938 491.875 230.625 491.875 C 215.457031 491.875 203.125 504.207031 203.125 519.375 C 203.125 534.542969 215.457031 546.875 230.625 546.875 C 245.792969 546.875 258.125 534.542969 258.125 519.375 C 258.125 514.289062 256.648438 509.585938 254.226562 505.496094 L 315.972656 443.75 L 345.257812 443.75 L 321.644531 526.414062 C 321.085938 526.378906 320.5625 526.25 320 526.25 C 304.832031 526.25 292.5 538.582031 292.5 553.75 C 292.5 568.917969 304.832031 581.25 320 581.25 C 335.167969 581.25 347.5 568.917969 347.5 553.75 C 347.5 544.015625 342.386719 535.503906 334.738281 530.617188 L 359.558594 443.75 L 390.441406 443.75 L 415.261719 530.617188 C 407.613281 535.503906 402.5 544.015625 402.5 553.75 C 402.5 568.917969 414.832031 581.25 430 581.25 C 445.167969 581.25 457.5 568.917969 457.5 553.75 C 457.5 538.582031 445.167969 526.25 430 526.25 C 429.4375 526.25 428.914062 526.378906 428.355469 526.414062 L 404.742188 443.75 L 434.027344 443.75 L 495.773438 505.496094 C 493.351562 509.585938 491.875 514.289062 491.875 519.375 C 491.875 534.542969 504.207031 546.875 519.375 546.875 C 534.542969 546.875 546.875 534.542969 546.875 519.375 C 546.875 504.207031 534.542969 491.875 519.375 491.875 C 514.289062 491.875 509.585938 493.351562 505.496094 495.773438 L 453.472656 443.75 L 464.375 443.75 C 482.921875 443.75 499.019531 433.183594 507.054688 417.777344 L 526.503906 427.496094 C 526.429688 428.335938 526.25 429.148438 526.25 430 C 526.25 445.167969 538.582031 457.5 553.75 457.5 C 568.917969 457.5 581.25 445.167969 581.25 430 C 581.25 414.832031 568.917969 402.5 553.75 402.5 C 544.367188 402.5 536.082031 407.238281 531.117188 414.433594 L 511.613281 404.6875 C 512.175781 401.742188 512.5 398.726562 512.5 395.625 C 512.5 383.449219 507.90625 372.324219 500.40625 363.820312 L 535.503906 340.417969 C 540.371094 344.769531 546.722656 347.5 553.75 347.5 Z M 519.375 216.875 C 526.957031 216.875 533.125 223.042969 533.125 230.625 C 533.125 238.207031 526.957031 244.375 519.375 244.375 C 511.792969 244.375 505.625 238.207031 505.625 230.625 C 505.625 223.042969 511.792969 216.875 519.375 216.875 Z M 430 182.5 C 437.582031 182.5 443.75 188.667969 443.75 196.25 C 443.75 203.832031 437.582031 210 430 210 C 422.417969 210 416.25 203.832031 416.25 196.25 C 416.25 188.667969 422.417969 182.5 430 182.5 Z M 306.25 196.25 C 306.25 188.667969 312.417969 182.5 320 182.5 C 327.582031 182.5 333.75 188.667969 333.75 196.25 C 333.75 203.832031 327.582031 210 320 210 C 312.417969 210 306.25 203.832031 306.25 196.25 Z M 196.25 443.75 C 188.667969 443.75 182.5 437.582031 182.5 430 C 182.5 422.417969 188.667969 416.25 196.25 416.25 C 203.832031 416.25 210 422.417969 210 430 C 210 437.582031 203.832031 443.75 196.25 443.75 Z M 230.625 533.125 C 223.042969 533.125 216.875 526.957031 216.875 519.375 C 216.875 511.792969 223.042969 505.625 230.625 505.625 C 238.207031 505.625 244.375 511.792969 244.375 519.375 C 244.375 526.957031 238.207031 533.125 230.625 533.125 Z M 320 567.5 C 312.417969 567.5 306.25 561.332031 306.25 553.75 C 306.25 546.167969 312.417969 540 320 540 C 327.582031 540 333.75 546.167969 333.75 553.75 C 333.75 561.332031 327.582031 567.5 320 567.5 Z M 443.75 553.75 C 443.75 561.332031 437.582031 567.5 430 567.5 C 422.417969 567.5 416.25 561.332031 416.25 553.75 C 416.25 546.167969 422.417969 540 430 540 C 437.582031 540 443.75 546.167969 443.75 553.75 Z M 533.125 519.375 C 533.125 526.957031 526.957031 533.125 519.375 533.125 C 511.792969 533.125 505.625 526.957031 505.625 519.375 C 505.625 511.792969 511.792969 505.625 519.375 505.625 C 526.957031 505.625 533.125 511.792969 533.125 519.375 Z M 553.75 416.25 C 561.332031 416.25 567.5 422.417969 567.5 430 C 567.5 437.582031 561.332031 443.75 553.75 443.75 C 546.167969 443.75 540 437.582031 540 430 C 540 422.417969 546.167969 416.25 553.75 416.25 Z M 553.75 306.25 C 561.332031 306.25 567.5 312.417969 567.5 320 C 567.5 327.582031 561.332031 333.75 553.75 333.75 C 546.167969 333.75 540 327.582031 540 320 C 540 312.417969 546.167969 306.25 553.75 306.25 Z M 216.875 230.625 C 216.875 223.042969 223.042969 216.875 230.625 216.875 C 238.207031 216.875 244.375 223.042969 244.375 230.625 C 244.375 238.207031 238.207031 244.375 230.625 244.375 C 223.042969 244.375 216.875 238.207031 216.875 230.625 Z M 196.25 333.75 C 188.667969 333.75 182.5 327.582031 182.5 320 C 182.5 312.417969 188.667969 306.25 196.25 306.25 C 203.832031 306.25 210 312.417969 210 320 C 210 327.582031 203.832031 333.75 196.25 333.75 Z M 464.375 430 L 285.625 430 C 266.671875 430 251.25 414.578125 251.25 395.625 C 251.25 378.582031 263.480469 364.308594 280.339844 361.703125 C 283.300781 361.25 285.625 358.925781 286.078125 355.957031 C 288.675781 339.121094 302.921875 326.890625 320.128906 326.890625 C 320.144531 326.890625 320.15625 326.890625 320.171875 326.890625 C 323.890625 327.148438 326.839844 324.421875 327.289062 320.875 C 330.285156 296.859375 350.792969 278.75 375 278.75 C 401.539062 278.75 423.125 300.34375 423.125 326.875 C 423.125 329.066406 422.917969 331.46875 422.507812 334.191406 C 422.128906 336.625 423.089844 339.070312 425.015625 340.609375 C 426.941406 342.15625 429.546875 342.523438 431.835938 341.621094 C 441.070312 337.964844 450.617188 345.257812 450.667969 353.714844 C 450.632812 353.976562 450.570312 354.527344 450.5625 354.789062 C 450.5 356.851562 451.367188 358.835938 452.921875 360.191406 C 454.480469 361.539062 456.566406 362.125 458.601562 361.773438 C 460.675781 361.421875 462.566406 361.25 464.375 361.25 C 483.328125 361.25 498.75 376.671875 498.75 395.625 C 498.75 414.578125 483.328125 430 464.375 430 Z M 464.375 430 " fill-opacity="1" fill-rule="nonzero"/></g></svg>