<svg xmlns="http://www.w3.org/2000/svg" xmlns:xlink="http://www.w3.org/1999/xlink" width="1000" zoomAndPan="magnify" viewBox="0 0 750 749.999995" height="1000" preserveAspectRatio="xMidYMid meet" version="1.0"><defs><clipPath id="9198935767"><path d="M 168.417969 44.46875 L 581.667969 44.46875 L 581.667969 705.21875 L 168.417969 705.21875 Z M 168.417969 44.46875 " clip-rule="nonzero"/></clipPath></defs><rect x="-75" width="900" fill="#ffffff" y="-74.999999" height="899.999994" fill-opacity="1"/><rect x="-75" width="900" fill="#ffffff" y="-74.999999" height="899.999994" fill-opacity="1"/><g clip-path="url(#9198935767)"><path fill="#daa900" d="M 210.832031 267.898438 L 210.835938 267.898438 C 222.097656 267.898438 232.902344 272.371094 240.863281 280.335938 C 248.828125 288.300781 253.304688 299.101562 253.304688 310.363281 L 253.304688 388.742188 C 253.304688 393.113281 255.21875 397.265625 258.546875 400.101562 L 328.808594 459.984375 C 331.507812 462.285156 334.941406 463.550781 338.488281 463.550781 L 411.371094 463.550781 C 414.917969 463.550781 418.347656 462.285156 421.050781 459.984375 L 491.3125 400.101562 C 494.640625 397.265625 496.554688 393.113281 496.554688 388.742188 L 496.554688 310.363281 C 496.554688 299.101562 501.027344 288.300781 508.992188 280.335938 C 516.957031 272.371094 527.757812 267.898438 539.019531 267.898438 L 539.027344 267.898438 C 550.289062 267.898438 561.089844 272.371094 569.054688 280.335938 C 577.015625 288.300781 581.492188 299.101562 581.492188 310.363281 L 581.492188 418.046875 C 581.492188 428.714844 576.792969 438.835938 568.648438 445.722656 L 474.613281 525.222656 C 473.175781 526.4375 472.347656 528.226562 472.347656 530.109375 L 472.347656 694.753906 C 472.347656 700.640625 467.578125 705.414062 461.6875 705.414062 L 287.796875 705.414062 C 281.910156 705.414062 277.140625 700.640625 277.140625 694.753906 L 277.140625 530.5 C 277.140625 528.628906 276.316406 526.847656 274.890625 525.632812 L 181.101562 445.691406 C 173.019531 438.808594 168.367188 428.726562 168.367188 418.109375 L 168.367188 310.363281 C 168.367188 299.101562 172.839844 288.300781 180.804688 280.335938 C 188.765625 272.371094 199.570312 267.898438 210.832031 267.898438 Z M 539.027344 289.214844 L 539.019531 289.214844 C 533.410156 289.214844 528.03125 291.441406 524.066406 295.410156 C 520.101562 299.375 517.871094 304.753906 517.871094 310.363281 L 517.871094 388.742188 C 517.871094 399.355469 513.21875 409.4375 505.140625 416.324219 L 434.878906 476.207031 C 428.320312 481.796875 419.984375 484.867188 411.367188 484.867188 L 338.488281 484.867188 C 329.871094 484.867188 321.535156 481.796875 314.980469 476.207031 L 244.71875 416.324219 C 236.640625 409.4375 231.984375 399.355469 231.984375 388.742188 L 231.984375 310.363281 C 231.984375 304.753906 229.757812 299.375 225.792969 295.410156 C 221.824219 291.441406 216.445312 289.214844 210.835938 289.214844 L 210.832031 289.214844 C 205.222656 289.214844 199.84375 291.441406 195.878906 295.410156 C 191.910156 299.375 189.683594 304.753906 189.683594 310.363281 L 189.683594 418.109375 C 189.683594 422.480469 191.601562 426.632812 194.929688 429.46875 L 288.71875 509.410156 C 294.898438 514.675781 298.457031 522.382812 298.457031 530.5 L 298.457031 684.097656 C 298.457031 684.097656 451.03125 684.097656 451.03125 684.097656 L 451.03125 530.109375 C 451.03125 521.949219 454.625 514.210938 460.851562 508.945312 L 554.882812 429.445312 C 558.238281 426.609375 560.171875 422.4375 560.171875 418.046875 L 560.171875 310.363281 C 560.171875 304.753906 557.945312 299.375 553.980469 295.410156 C 550.011719 291.441406 544.632812 289.214844 539.027344 289.214844 Z M 374.929688 295.078125 C 414.59375 295.078125 446.964844 328.140625 446.964844 369.070312 C 446.964844 410 414.59375 443.066406 374.929688 443.066406 C 335.265625 443.066406 302.890625 410 302.890625 369.070312 C 302.890625 328.140625 335.265625 295.078125 374.929688 295.078125 Z M 374.929688 316.394531 C 346.84375 316.394531 324.210938 340.089844 324.210938 369.070312 C 324.210938 398.054688 346.84375 421.75 374.929688 421.75 C 403.015625 421.75 425.648438 398.054688 425.648438 369.070312 C 425.648438 340.089844 403.015625 316.394531 374.929688 316.394531 Z M 346.371094 165.40625 L 356.945312 132.859375 C 359.476562 125.070312 366.738281 119.796875 374.929688 119.796875 C 383.121094 119.796875 390.382812 125.070312 392.914062 132.859375 L 403.484375 165.40625 L 437.707031 165.40625 C 445.898438 165.40625 453.15625 170.679688 455.6875 178.46875 C 458.21875 186.261719 455.445312 194.796875 448.820312 199.613281 L 421.136719 219.726562 L 431.710938 252.269531 C 434.242188 260.058594 431.46875 268.59375 424.839844 273.410156 C 418.214844 278.226562 409.238281 278.226562 402.613281 273.410156 L 374.929688 253.296875 L 347.246094 273.410156 C 340.617188 278.226562 331.644531 278.226562 325.015625 273.410156 C 318.386719 268.59375 315.617188 260.058594 318.148438 252.269531 L 328.722656 219.726562 L 301.039062 199.613281 C 294.410156 194.796875 291.636719 186.261719 294.167969 178.46875 C 296.699219 170.679688 303.960938 165.40625 312.152344 165.40625 Z M 319.566406 186.722656 L 342.667969 203.507812 C 349.292969 208.324219 352.066406 216.859375 349.535156 224.648438 L 340.710938 251.804688 L 363.8125 235.019531 C 370.441406 230.207031 379.417969 230.207031 386.042969 235.019531 L 409.144531 251.804688 L 400.320312 224.648438 C 397.789062 216.859375 400.5625 208.324219 407.191406 203.507812 L 430.292969 186.722656 L 401.738281 186.722656 C 393.542969 186.722656 386.285156 181.449219 383.753906 173.65625 L 374.929688 146.5 L 366.105469 173.65625 C 363.574219 181.449219 356.3125 186.722656 348.121094 186.722656 Z M 364.269531 55.234375 C 364.269531 49.351562 369.046875 44.578125 374.929688 44.578125 C 380.8125 44.578125 385.585938 49.351562 385.585938 55.234375 L 385.585938 91.03125 C 385.585938 96.914062 380.8125 101.691406 374.929688 101.691406 C 369.046875 101.691406 364.269531 96.914062 364.269531 91.03125 Z M 294.109375 79.746094 C 291.171875 74.652344 292.917969 68.125 298.011719 65.1875 C 303.105469 62.246094 309.632812 63.992188 312.574219 69.085938 L 330.472656 100.089844 C 333.410156 105.183594 331.664062 111.707031 326.570312 114.648438 C 321.476562 117.589844 314.949219 115.839844 312.007812 110.746094 Z M 245.605469 136.054688 C 240.515625 133.113281 238.765625 126.585938 241.707031 121.492188 C 244.648438 116.398438 251.171875 114.648438 256.265625 117.589844 L 287.265625 135.488281 C 292.363281 138.429688 294.109375 144.953125 291.167969 150.050781 C 288.226562 155.144531 281.703125 156.890625 276.609375 153.949219 Z M 437.285156 69.085938 C 440.226562 63.992188 446.75 62.246094 451.84375 65.1875 C 456.9375 68.125 458.6875 74.652344 455.746094 79.746094 L 437.847656 110.746094 C 434.90625 115.839844 428.382812 117.589844 423.289062 114.648438 C 418.195312 111.707031 416.445312 105.183594 419.386719 100.089844 Z M 493.589844 117.589844 C 498.683594 114.648438 505.210938 116.398438 508.152344 121.492188 C 511.09375 126.585938 509.34375 133.113281 504.25 136.054688 L 473.25 153.949219 C 468.15625 156.890625 461.628906 155.144531 458.691406 150.050781 C 455.746094 144.953125 457.496094 138.429688 462.589844 135.488281 Z M 493.589844 117.589844 " fill-opacity="1" fill-rule="evenodd"/></g></svg>