<svg xmlns="http://www.w3.org/2000/svg" xmlns:xlink="http://www.w3.org/1999/xlink" width="500" zoomAndPan="magnify" viewBox="0 0 375 374.999991" height="500" preserveAspectRatio="xMidYMid meet" version="1.0"><defs><g/><clipPath id="554eea39e2"><path d="M 289 92 L 310.949219 92 L 310.949219 114 L 289 114 Z M 289 92 " clip-rule="nonzero"/></clipPath><clipPath id="9b62ef1591"><path d="M 135 3.046875 L 158 3.046875 L 158 25 L 135 25 Z M 135 3.046875 " clip-rule="nonzero"/></clipPath><clipPath id="1933ab6419"><path d="M 200 247 L 223 247 L 223 268.546875 L 200 268.546875 Z M 200 247 " clip-rule="nonzero"/></clipPath></defs><rect x="-37.5" width="450" fill="#ffffff" y="-37.499999" height="449.999989" fill-opacity="1"/><rect x="-37.5" width="450" fill="#ffffff" y="-37.499999" height="449.999989" fill-opacity="1"/><rect x="-37.5" width="450" fill="#100f0d" y="-37.499999" height="449.999989" fill-opacity="1"/><path stroke-linecap="butt" transform="matrix(1.300053, -0.000000000000000782, 0.000000000000000782, 1.300053, 55.905099, 286.359092)" fill="none" stroke-linejoin="miter" d="M 0.000885173 0.000217994 L 189.004666 0.000217994 " stroke="#905e96" stroke-width="1" stroke-opacity="1" stroke-miterlimit="4"/><path stroke-linecap="butt" transform="matrix(14.300577, -0.000000000000008602, 0.000000000000008602, 14.300577, 55.905099, 292.859366)" fill="none" stroke-linejoin="miter" d="M 0.0000804703 0.000000603549 L 17.182243 0.000000603549 " stroke="#095092" stroke-width="1" stroke-opacity="1" stroke-miterlimit="4"/><path fill="#095092" d="M 175.761719 193.96875 C 159.554688 193.96875 131.703125 192.820312 127.230469 185.140625 C 123.347656 178.476562 121.832031 152.9375 121.714844 133.09375 C 121.636719 119.902344 122.066406 88.675781 127.730469 83.574219 C 133.875 78.035156 171.742188 77.753906 179.269531 77.753906 C 189.464844 77.753906 223.226562 78.167969 229.632812 83.507812 C 235.730469 88.59375 236.3125 117.265625 236.117188 133.902344 C 235.929688 150.039062 234.449219 179.027344 230.097656 185.308594 C 224.273438 193.726562 180.707031 193.96875 175.761719 193.96875 Z M 179.269531 82.902344 C 149.542969 82.902344 133.253906 85.527344 131.183594 87.394531 C 129.417969 89.046875 126.683594 102.941406 126.871094 133.167969 C 127.015625 156.859375 129.085938 178.089844 131.683594 182.550781 C 133.097656 184.972656 146.3125 188.820312 175.761719 188.820312 C 205.148438 188.820312 224.035156 185.011719 225.859375 182.378906 C 228.125 179.105469 230.65625 160.050781 230.964844 133.839844 C 231.324219 103.164062 228.3125 89.109375 226.328125 87.457031 C 223.675781 85.25 206.285156 82.902344 179.269531 82.902344 Z M 179.269531 82.902344 " fill-opacity="1" fill-rule="nonzero"/><path fill="#095092" d="M 265.488281 155.78125 L 233.570312 155.78125 C 232.144531 155.78125 230.992188 154.628906 230.992188 153.207031 C 230.992188 151.785156 232.144531 150.632812 233.570312 150.632812 L 265.488281 150.632812 C 266.910156 150.632812 268.066406 151.785156 268.066406 153.207031 C 268.066406 154.628906 266.910156 155.78125 265.488281 155.78125 Z M 265.488281 155.78125 " fill-opacity="1" fill-rule="nonzero"/><path fill="#095092" d="M 265.488281 105.09375 L 233.570312 105.09375 C 232.144531 105.09375 230.992188 103.945312 230.992188 102.519531 C 230.992188 101.101562 232.144531 99.945312 233.570312 99.945312 L 265.488281 99.945312 C 266.910156 99.945312 268.066406 101.097656 268.066406 102.519531 C 268.066406 103.945312 266.910156 105.09375 265.488281 105.09375 Z M 265.488281 105.09375 " fill-opacity="1" fill-rule="nonzero"/><path fill="#095092" d="M 253.148438 122.261719 L 235.410156 122.261719 C 233.984375 122.261719 232.832031 121.109375 232.832031 119.6875 C 232.832031 118.265625 233.984375 117.113281 235.410156 117.113281 L 253.148438 117.113281 C 254.570312 117.113281 255.726562 118.265625 255.726562 119.6875 C 255.726562 121.109375 254.570312 122.261719 253.148438 122.261719 Z M 253.148438 122.261719 " fill-opacity="1" fill-rule="nonzero"/><path fill="#095092" d="M 269.121094 140.441406 L 233.570312 140.441406 C 232.144531 140.441406 230.992188 139.289062 230.992188 137.867188 C 230.992188 136.445312 232.144531 135.292969 233.570312 135.292969 L 267.011719 135.292969 L 293.507812 109.269531 C 294.519531 108.273438 296.152344 108.285156 297.152344 109.300781 C 298.148438 110.3125 298.136719 111.941406 297.121094 112.9375 Z M 269.121094 140.441406 " fill-opacity="1" fill-rule="nonzero"/><path fill="#095092" d="M 273.589844 170.703125 L 233.570312 170.703125 C 232.144531 170.703125 230.992188 169.550781 230.992188 168.128906 C 230.992188 166.707031 232.144531 165.554688 233.570312 165.554688 L 273.589844 165.554688 C 275.011719 165.554688 276.164062 166.707031 276.164062 168.128906 C 276.164062 169.550781 275.011719 170.703125 273.589844 170.703125 Z M 273.589844 170.703125 " fill-opacity="1" fill-rule="nonzero"/><path fill="#095092" d="M 281.6875 178.789062 C 275.800781 178.789062 271.011719 174.007812 271.011719 168.128906 C 271.011719 162.253906 275.800781 157.46875 281.6875 157.46875 C 287.578125 157.46875 292.367188 162.253906 292.367188 168.128906 C 292.367188 174.007812 287.578125 178.789062 281.6875 178.789062 Z M 281.6875 162.617188 C 278.644531 162.617188 276.164062 165.089844 276.164062 168.128906 C 276.164062 171.171875 278.644531 173.644531 281.6875 173.644531 C 284.734375 173.644531 287.210938 171.171875 287.210938 168.128906 C 287.210938 165.089844 284.734375 162.617188 281.6875 162.617188 Z M 281.6875 162.617188 " fill-opacity="1" fill-rule="nonzero"/><g clip-path="url(#554eea39e2)"><path fill="#095092" d="M 300.160156 113.847656 C 294.273438 113.847656 289.480469 109.0625 289.480469 103.1875 C 289.480469 97.308594 294.273438 92.527344 300.160156 92.527344 C 306.046875 92.527344 310.839844 97.308594 310.839844 103.1875 C 310.839844 109.0625 306.050781 113.847656 300.160156 113.847656 Z M 300.160156 97.671875 C 297.117188 97.671875 294.636719 100.144531 294.636719 103.1875 C 294.636719 106.226562 297.113281 108.703125 300.160156 108.703125 C 303.207031 108.703125 305.683594 106.226562 305.683594 103.1875 C 305.683594 100.144531 303.207031 97.671875 300.160156 97.671875 Z M 300.160156 97.671875 " fill-opacity="1" fill-rule="nonzero"/></g><path fill="#095092" d="M 196.503906 82.808594 C 195.082031 82.808594 193.925781 81.65625 193.925781 80.234375 L 193.925781 48.367188 C 193.925781 46.945312 195.082031 45.792969 196.503906 45.792969 C 197.929688 45.792969 199.082031 46.945312 199.082031 48.367188 L 199.082031 80.234375 C 199.082031 81.65625 197.929688 82.808594 196.503906 82.808594 Z M 196.503906 82.808594 " fill-opacity="1" fill-rule="nonzero"/><path fill="#095092" d="M 145.734375 82.808594 C 144.3125 82.808594 143.160156 81.65625 143.160156 80.234375 L 143.160156 48.367188 C 143.160156 46.945312 144.3125 45.792969 145.734375 45.792969 C 147.160156 45.792969 148.3125 46.945312 148.3125 48.367188 L 148.3125 80.234375 C 148.3125 81.65625 147.160156 82.808594 145.734375 82.808594 Z M 145.734375 82.808594 " fill-opacity="1" fill-rule="nonzero"/><path fill="#095092" d="M 162.929688 80.972656 C 161.507812 80.972656 160.355469 79.820312 160.355469 78.398438 L 160.355469 60.6875 C 160.355469 59.269531 161.507812 58.113281 162.929688 58.113281 C 164.355469 58.113281 165.507812 59.265625 165.507812 60.6875 L 165.507812 78.398438 C 165.507812 79.816406 164.355469 80.972656 162.929688 80.972656 Z M 162.929688 80.972656 " fill-opacity="1" fill-rule="nonzero"/><path fill="#095092" d="M 181.140625 82.808594 C 179.71875 82.808594 178.5625 81.65625 178.5625 80.234375 L 178.5625 46.847656 L 152.496094 20.394531 C 151.496094 19.382812 151.511719 17.753906 152.527344 16.757812 C 153.539062 15.757812 155.171875 15.773438 156.171875 16.785156 L 183.71875 44.742188 L 183.71875 80.234375 C 183.71875 81.65625 182.566406 82.808594 181.140625 82.808594 Z M 181.140625 82.808594 " fill-opacity="1" fill-rule="nonzero"/><path fill="#095092" d="M 211.453125 82.808594 C 210.027344 82.808594 208.875 81.65625 208.875 80.234375 L 208.875 40.28125 C 208.875 38.859375 210.027344 37.707031 211.453125 37.707031 C 212.875 37.707031 214.03125 38.859375 214.03125 40.28125 L 214.03125 80.234375 C 214.027344 81.65625 212.875 82.808594 211.453125 82.808594 Z M 211.453125 82.808594 " fill-opacity="1" fill-rule="nonzero"/><path fill="#095092" d="M 211.453125 42.855469 C 205.5625 42.855469 200.773438 38.070312 200.773438 32.195312 C 200.773438 26.316406 205.5625 21.535156 211.453125 21.535156 C 217.339844 21.535156 222.128906 26.316406 222.128906 32.195312 C 222.128906 38.070312 217.339844 42.855469 211.453125 42.855469 Z M 211.453125 26.679688 C 208.40625 26.679688 205.929688 29.152344 205.929688 32.195312 C 205.929688 35.234375 208.40625 37.707031 211.453125 37.707031 C 214.496094 37.707031 216.976562 35.234375 216.976562 32.195312 C 216.976562 29.152344 214.496094 26.679688 211.453125 26.679688 Z M 211.453125 26.679688 " fill-opacity="1" fill-rule="nonzero"/><g clip-path="url(#9b62ef1591)"><path fill="#095092" d="M 146.402344 24.414062 C 140.511719 24.414062 135.722656 19.628906 135.722656 13.753906 C 135.722656 7.875 140.511719 3.09375 146.402344 3.09375 C 152.289062 3.09375 157.078125 7.875 157.078125 13.753906 C 157.078125 19.628906 152.289062 24.414062 146.402344 24.414062 Z M 146.402344 8.238281 C 143.355469 8.238281 140.878906 10.710938 140.878906 13.753906 C 140.878906 16.792969 143.355469 19.265625 146.402344 19.265625 C 149.445312 19.265625 151.925781 16.792969 151.925781 13.753906 C 151.925781 10.710938 149.445312 8.238281 146.402344 8.238281 Z M 146.402344 8.238281 " fill-opacity="1" fill-rule="nonzero"/></g><path fill="#095092" d="M 124.332031 121.066406 L 92.410156 121.066406 C 90.988281 121.066406 89.835938 119.914062 89.835938 118.492188 C 89.835938 117.070312 90.988281 115.921875 92.410156 115.921875 L 124.332031 115.921875 C 125.753906 115.921875 126.910156 117.070312 126.910156 118.492188 C 126.90625 119.914062 125.753906 121.066406 124.332031 121.066406 Z M 124.332031 121.066406 " fill-opacity="1" fill-rule="nonzero"/><path fill="#095092" d="M 124.332031 171.753906 L 92.410156 171.753906 C 90.988281 171.753906 89.835938 170.601562 89.835938 169.179688 C 89.835938 167.757812 90.988281 166.605469 92.410156 166.605469 L 124.332031 166.605469 C 125.753906 166.605469 126.910156 167.757812 126.910156 169.179688 C 126.90625 170.601562 125.753906 171.753906 124.332031 171.753906 Z M 124.332031 171.753906 " fill-opacity="1" fill-rule="nonzero"/><path fill="#095092" d="M 122.488281 154.585938 L 104.75 154.585938 C 103.328125 154.585938 102.171875 153.433594 102.171875 152.011719 C 102.171875 150.589844 103.328125 149.4375 104.75 149.4375 L 122.488281 149.4375 C 123.914062 149.4375 125.066406 150.589844 125.066406 152.011719 C 125.066406 153.433594 123.914062 154.585938 122.488281 154.585938 Z M 122.488281 154.585938 " fill-opacity="1" fill-rule="nonzero"/><path fill="#095092" d="M 62.585938 163.167969 C 61.917969 163.167969 61.253906 162.914062 60.746094 162.402344 C 59.75 161.386719 59.765625 159.757812 60.777344 158.761719 L 88.777344 131.261719 L 124.332031 131.261719 C 125.753906 131.261719 126.910156 132.410156 126.910156 133.832031 C 126.910156 135.253906 125.753906 136.40625 124.332031 136.40625 L 90.890625 136.40625 L 64.394531 162.429688 C 63.890625 162.921875 63.238281 163.167969 62.585938 163.167969 Z M 62.585938 163.167969 " fill-opacity="1" fill-rule="nonzero"/><path fill="#095092" d="M 124.332031 106.144531 L 84.3125 106.144531 C 82.886719 106.144531 81.734375 104.992188 81.734375 103.570312 C 81.734375 102.148438 82.886719 100.996094 84.3125 100.996094 L 124.332031 100.996094 C 125.753906 100.996094 126.910156 102.148438 126.910156 103.570312 C 126.90625 104.992188 125.753906 106.144531 124.332031 106.144531 Z M 124.332031 106.144531 " fill-opacity="1" fill-rule="nonzero"/><path fill="#095092" d="M 76.210938 114.234375 C 70.320312 114.234375 65.53125 109.449219 65.53125 103.574219 C 65.53125 97.695312 70.320312 92.910156 76.210938 92.910156 C 82.097656 92.910156 86.886719 97.695312 86.886719 103.574219 C 86.886719 109.449219 82.097656 114.234375 76.210938 114.234375 Z M 76.210938 98.058594 C 73.164062 98.058594 70.6875 100.53125 70.6875 103.574219 C 70.6875 106.613281 73.164062 109.085938 76.210938 109.085938 C 79.253906 109.085938 81.734375 106.613281 81.734375 103.574219 C 81.734375 100.53125 79.253906 98.058594 76.210938 98.058594 Z M 76.210938 98.058594 " fill-opacity="1" fill-rule="nonzero"/><path fill="#095092" d="M 57.738281 179.175781 C 51.851562 179.175781 47.058594 174.394531 47.058594 168.515625 C 47.058594 162.636719 51.847656 157.855469 57.738281 157.855469 C 63.625 157.855469 68.417969 162.636719 68.417969 168.515625 C 68.417969 174.394531 63.625 179.175781 57.738281 179.175781 Z M 57.738281 163 C 54.691406 163 52.214844 165.476562 52.214844 168.515625 C 52.214844 171.554688 54.691406 174.03125 57.738281 174.03125 C 60.785156 174.03125 63.261719 171.554688 63.261719 168.515625 C 63.261719 165.476562 60.785156 163 57.738281 163 Z M 57.738281 163 " fill-opacity="1" fill-rule="nonzero"/><path fill="#095092" d="M 161.394531 225.90625 C 159.96875 225.90625 158.816406 224.753906 158.816406 223.332031 L 158.816406 191.464844 C 158.816406 190.042969 159.96875 188.890625 161.394531 188.890625 C 162.816406 188.890625 163.972656 190.042969 163.972656 191.464844 L 163.972656 223.332031 C 163.972656 224.753906 162.816406 225.90625 161.394531 225.90625 Z M 161.394531 225.90625 " fill-opacity="1" fill-rule="nonzero"/><path fill="#095092" d="M 212.164062 225.90625 C 210.738281 225.90625 209.585938 224.753906 209.585938 223.332031 L 209.585938 191.464844 C 209.585938 190.042969 210.738281 188.890625 212.164062 188.890625 C 213.585938 188.890625 214.738281 190.042969 214.738281 191.464844 L 214.738281 223.332031 C 214.742188 224.753906 213.585938 225.90625 212.164062 225.90625 Z M 212.164062 225.90625 " fill-opacity="1" fill-rule="nonzero"/><path fill="#095092" d="M 194.96875 213.585938 C 193.542969 213.585938 192.390625 212.433594 192.390625 211.011719 L 192.390625 193.304688 C 192.390625 191.882812 193.542969 190.730469 194.96875 190.730469 C 196.390625 190.730469 197.546875 191.882812 197.546875 193.304688 L 197.546875 211.011719 C 197.546875 212.433594 196.390625 213.585938 194.96875 213.585938 Z M 194.96875 213.585938 " fill-opacity="1" fill-rule="nonzero"/><path fill="#095092" d="M 203.566406 255.683594 C 202.898438 255.683594 202.230469 255.425781 201.726562 254.914062 L 174.179688 226.960938 L 174.179688 191.46875 C 174.179688 190.046875 175.332031 188.894531 176.757812 188.894531 C 178.179688 188.894531 179.335938 190.042969 179.335938 191.46875 L 179.335938 224.851562 L 205.402344 251.304688 C 206.402344 252.320312 206.386719 253.949219 205.371094 254.945312 C 204.871094 255.4375 204.21875 255.683594 203.566406 255.683594 Z M 203.566406 255.683594 " fill-opacity="1" fill-rule="nonzero"/><path fill="#095092" d="M 146.445312 233.992188 C 145.023438 233.992188 143.867188 232.84375 143.867188 231.421875 L 143.867188 191.464844 C 143.867188 190.042969 145.023438 188.890625 146.445312 188.890625 C 147.871094 188.890625 149.023438 190.042969 149.023438 191.464844 L 149.023438 231.421875 C 149.023438 232.84375 147.871094 233.992188 146.445312 233.992188 Z M 146.445312 233.992188 " fill-opacity="1" fill-rule="nonzero"/><path fill="#095092" d="M 146.445312 250.167969 C 140.558594 250.167969 135.769531 245.386719 135.769531 239.507812 C 135.769531 233.628906 140.558594 228.847656 146.445312 228.847656 C 152.335938 228.847656 157.125 233.628906 157.125 239.507812 C 157.125 245.386719 152.335938 250.167969 146.445312 250.167969 Z M 146.445312 233.992188 C 143.402344 233.992188 140.921875 236.46875 140.921875 239.507812 C 140.921875 242.550781 143.402344 245.023438 146.445312 245.023438 C 149.492188 245.023438 151.96875 242.550781 151.96875 239.507812 C 151.96875 236.46875 149.492188 233.992188 146.445312 233.992188 Z M 146.445312 233.992188 " fill-opacity="1" fill-rule="nonzero"/><g clip-path="url(#1933ab6419)"><path fill="#095092" d="M 211.496094 268.609375 C 205.609375 268.609375 200.820312 263.828125 200.820312 257.949219 C 200.820312 252.070312 205.609375 247.289062 211.496094 247.289062 C 217.386719 247.289062 222.175781 252.070312 222.175781 257.949219 C 222.175781 263.828125 217.386719 268.609375 211.496094 268.609375 Z M 211.496094 252.433594 C 208.453125 252.433594 205.972656 254.910156 205.972656 257.949219 C 205.972656 260.992188 208.453125 263.464844 211.496094 263.464844 C 214.542969 263.464844 217.019531 260.992188 217.019531 257.949219 C 217.023438 254.910156 214.542969 252.433594 211.496094 252.433594 Z M 211.496094 252.433594 " fill-opacity="1" fill-rule="nonzero"/></g><path fill="#095092" d="M 177.6875 146.480469 C 171.671875 146.480469 166.777344 141.59375 166.777344 135.589844 C 166.777344 129.582031 171.671875 124.695312 177.6875 124.695312 C 183.703125 124.695312 188.597656 129.582031 188.597656 135.589844 C 188.597656 141.59375 183.703125 146.480469 177.6875 146.480469 Z M 177.6875 129.84375 C 174.511719 129.84375 171.929688 132.421875 171.929688 135.589844 C 171.929688 138.757812 174.511719 141.335938 177.6875 141.335938 C 180.859375 141.335938 183.441406 138.757812 183.441406 135.589844 C 183.441406 132.421875 180.859375 129.84375 177.6875 129.84375 Z M 177.6875 129.84375 " fill-opacity="1" fill-rule="nonzero"/><path fill="#095092" d="M 179.132812 168.847656 C 177.738281 168.847656 174.332031 168.652344 172.753906 166.851562 C 172.273438 166.300781 171.414062 165.316406 170.890625 159.484375 C 169.808594 159.175781 168.746094 158.796875 167.710938 158.34375 C 163.53125 161.667969 162.136719 161.90625 161.507812 162.011719 C 161.296875 162.046875 161.078125 162.066406 160.855469 162.066406 C 158.59375 162.066406 156.429688 160.113281 155.34375 158.953125 C 154.261719 157.796875 152.46875 155.542969 152.613281 153.414062 C 152.675781 152.488281 153.007812 151.191406 155.917969 147.613281 C 155.226562 146.371094 154.648438 145.074219 154.179688 143.730469 C 150.183594 143.21875 148.820312 142.574219 148.085938 142.058594 C 146.765625 141.121094 146.03125 139.355469 145.902344 136.808594 C 145.859375 135.949219 145.75 131.558594 147.882812 129.699219 C 148.566406 129.105469 149.675781 128.441406 154.007812 127.964844 C 154.46875 126.542969 155.054688 125.164062 155.765625 123.847656 C 153.378906 120.738281 152.882812 119.347656 152.730469 118.472656 C 152.480469 116.980469 153.105469 115.332031 154.597656 113.570312 C 155.851562 112.085938 158.628906 109.582031 161.085938 109.582031 C 161.175781 109.582031 161.257812 109.585938 161.339844 109.589844 C 162.285156 109.65625 163.605469 109.996094 167.304688 113.015625 C 168.492188 112.472656 169.71875 112.019531 170.976562 111.671875 C 171.574219 106.6875 172.363281 105.578125 172.71875 105.074219 C 174.011719 103.257812 176.695312 102.875 178.71875 102.875 C 180.113281 102.875 183.523438 103.070312 185.097656 104.871094 C 185.589844 105.433594 186.46875 106.441406 186.988281 112.554688 C 187.886719 112.917969 188.765625 113.332031 189.617188 113.796875 C 194.183594 110.074219 195.726562 109.816406 196.34375 109.710938 C 196.554688 109.675781 196.773438 109.65625 196.996094 109.65625 C 199.257812 109.65625 201.421875 111.605469 202.507812 112.765625 C 203.589844 113.921875 205.382812 116.179688 205.242188 118.304688 C 205.191406 119.046875 205.089844 120.53125 200.519531 125.792969 C 200.792969 126.449219 201.054688 127.128906 201.273438 127.71875 C 204.253906 127.976562 208.152344 128.523438 209.765625 129.664062 C 211.085938 130.601562 211.820312 132.367188 211.949219 134.914062 C 211.992188 135.773438 212.101562 140.164062 209.96875 142.023438 C 209.394531 142.519531 208.246094 143.519531 201.085938 144.007812 C 200.867188 144.632812 200.628906 145.257812 200.421875 145.789062 C 202.359375 148.082031 204.785156 151.277344 205.121094 153.25 C 205.375 154.738281 204.746094 156.390625 203.253906 158.152344 C 202 159.632812 199.226562 162.136719 196.765625 162.136719 C 196.679688 162.136719 196.59375 162.136719 196.511719 162.128906 C 195.78125 162.082031 194.324219 161.980469 189.214844 157.597656 C 188.503906 157.96875 187.777344 158.304688 187.035156 158.605469 C 186.445312 164.804688 185.46875 166.171875 185.132812 166.648438 C 183.839844 168.464844 181.15625 168.847656 179.132812 168.847656 Z M 176.683594 163.378906 C 177.136719 163.527344 178.03125 163.699219 179.132812 163.699219 C 180.097656 163.699219 180.714844 163.570312 181.011719 163.472656 C 181.320312 162.625 181.777344 160.050781 182.035156 156.5625 L 182.164062 154.84375 L 183.804688 154.308594 C 185.332031 153.808594 186.796875 153.125 188.160156 152.269531 L 189.804688 151.238281 L 191.253906 152.53125 C 194.140625 155.117188 196.035156 156.476562 196.839844 156.90625 C 197.824219 156.441406 199.550781 154.800781 199.964844 153.921875 C 199.515625 152.9375 197.539062 150.277344 195.515625 147.992188 L 194.445312 146.785156 L 195.066406 145.296875 C 195.078125 145.269531 196.238281 142.480469 196.691406 140.851562 L 197.1875 139.058594 L 199.050781 138.96875 C 202.746094 138.785156 205.480469 138.40625 206.5 138.097656 C 206.867188 137.074219 206.925781 134.691406 206.59375 133.78125 C 205.582031 133.402344 202.296875 132.914062 199.25 132.726562 L 197.519531 132.621094 L 196.964844 130.984375 C 196.679688 130.140625 195.804688 127.699219 195.195312 126.527344 L 194.371094 124.945312 L 195.566406 123.621094 C 198.191406 120.703125 199.570312 118.785156 200.007812 117.976562 C 199.542969 116.992188 197.902344 115.273438 197.019531 114.859375 C 196.320312 115.183594 194.429688 116.429688 191.542969 118.898438 L 190.074219 120.152344 L 188.457031 119.097656 C 186.992188 118.140625 185.40625 117.382812 183.753906 116.851562 L 182.082031 116.3125 L 181.972656 114.566406 C 181.738281 110.988281 181.390625 109.089844 181.167969 108.34375 C 180.714844 108.195312 179.824219 108.019531 178.71875 108.019531 C 177.761719 108.019531 177.140625 108.148438 176.84375 108.246094 C 176.632812 108.847656 176.230469 110.59375 175.917969 113.984375 L 175.738281 115.902344 L 173.847656 116.273438 C 171.867188 116.664062 169.964844 117.351562 168.195312 118.328125 L 166.628906 119.1875 L 165.273438 118.027344 C 162.753906 115.871094 161.515625 115.085938 161.011719 114.816406 C 160.027344 115.28125 158.320312 116.90625 157.894531 117.785156 C 158.101562 118.207031 158.78125 119.425781 160.882812 122.003906 L 162.058594 123.445312 L 161.054688 125.011719 C 159.882812 126.847656 159.027344 128.851562 158.519531 130.960938 L 158.085938 132.765625 L 156.226562 132.917969 C 153.210938 133.167969 151.878906 133.46875 151.355469 133.628906 C 150.988281 134.652344 150.933594 137.015625 151.261719 137.933594 C 151.8125 138.125 153.386719 138.5 156.414062 138.804688 L 158.183594 138.984375 L 158.644531 140.699219 C 159.1875 142.738281 160.058594 144.664062 161.230469 146.429688 L 162.300781 148.050781 L 161.039062 149.523438 C 158.898438 152.019531 158.121094 153.25 157.847656 153.75 C 158.320312 154.730469 159.953125 156.445312 160.835938 156.859375 C 161.414062 156.582031 162.984375 155.609375 165.699219 153.339844 L 167.023438 152.234375 L 168.550781 153.035156 C 170.21875 153.90625 171.992188 154.535156 173.820312 154.898438 L 175.761719 155.28125 L 175.890625 157.253906 C 176.121094 160.769531 176.464844 162.636719 176.683594 163.378906 Z M 176.683594 163.378906 " fill-opacity="1" fill-rule="nonzero"/><g fill="#095092" fill-opacity="1"><g transform="translate(50.855876, 266.621349)"><g><path d="M 52.105469 0 L 37.507812 -25.867188 C 45.359375 -28.730469 50.535156 -36.121094 50.535156 -44.621094 C 50.535156 -55.523438 42.3125 -64.667969 30.210938 -64.667969 L 6.003906 -64.667969 L 6.003906 0 L 12.65625 0 L 12.65625 -24.574219 L 30.210938 -24.574219 C 30.300781 -24.574219 30.488281 -24.574219 30.578125 -24.574219 L 44.4375 0 Z M 12.65625 -58.019531 L 30.210938 -58.019531 C 38.433594 -58.019531 43.605469 -51.828125 43.605469 -44.621094 C 43.605469 -37.414062 38.433594 -31.226562 30.210938 -31.226562 L 12.65625 -31.226562 Z M 12.65625 -58.019531 "/></g></g></g><g fill="#095092" fill-opacity="1"><g transform="translate(52.40368, 363.034049)"><g><path d="M 34.75 1.0625 C 22.695312 1.0625 14.210938 -1.4375 9.296875 -6.4375 C 5.160156 -10.644531 3.09375 -16.71875 3.09375 -24.65625 L 3.09375 -49.390625 L 23.828125 -49.390625 L 23.828125 -24.65625 C 23.828125 -21.21875 24.414062 -18.5 25.59375 -16.5 C 27.269531 -13.625 30.320312 -12.1875 34.75 -12.1875 C 39.226562 -12.1875 42.289062 -13.625 43.9375 -16.5 C 45.113281 -18.5625 45.703125 -21.28125 45.703125 -24.65625 L 45.703125 -49.390625 L 66.4375 -49.390625 L 66.4375 -24.390625 C 66.4375 -16.628906 64.378906 -10.644531 60.265625 -6.4375 C 55.328125 -1.4375 46.820312 1.0625 34.75 1.0625 Z M 34.75 1.0625 "/></g></g></g><g fill="#095092" fill-opacity="1"><g transform="translate(124.056232, 363.034049)"><g><path d="M 37.359375 1.0625 C 25.148438 1.0625 16.164062 -1.445312 10.40625 -6.46875 C 5.300781 -10.90625 2.75 -16.96875 2.75 -24.65625 C 2.75 -32.351562 5.300781 -38.425781 10.40625 -42.875 C 16.164062 -47.882812 25.148438 -50.390625 37.359375 -50.390625 C 44.523438 -50.390625 50.445312 -49.566406 55.125 -47.921875 C 59.8125 -46.273438 63.453125 -44.03125 66.046875 -41.1875 C 68.648438 -38.34375 70.375 -35.082031 71.21875 -31.40625 L 49.421875 -31.40625 C 47.234375 -35.238281 43.210938 -37.15625 37.359375 -37.15625 C 32.359375 -37.15625 28.675781 -35.710938 26.3125 -32.828125 C 24.425781 -30.523438 23.484375 -27.800781 23.484375 -24.65625 C 23.484375 -21.507812 24.425781 -18.789062 26.3125 -16.5 C 28.675781 -13.601562 32.359375 -12.15625 37.359375 -12.15625 C 43.210938 -12.15625 47.234375 -14.082031 49.421875 -17.9375 L 71.21875 -17.9375 C 70.375 -14.238281 68.648438 -10.96875 66.046875 -8.125 C 63.453125 -5.28125 59.8125 -3.035156 55.125 -1.390625 C 50.445312 0.242188 44.523438 1.0625 37.359375 1.0625 Z M 37.359375 1.0625 "/></g></g></g><g fill="#095092" fill-opacity="1"><g transform="translate(200.151667, 363.034049)"><g><path d="M 99.453125 0 L 78.734375 0 L 78.734375 -31.515625 L 60.203125 0 L 44.734375 0 L 26.25 -31.515625 L 26.25 0 L 5.515625 0 L 5.515625 -49.421875 L 30.140625 -49.421875 L 52.484375 -14.125 L 74.796875 -49.421875 L 99.453125 -49.421875 Z M 99.453125 0 "/></g></g></g><g fill="#095092" fill-opacity="1"><g transform="translate(241.073485, 266.621349)"><g><path d="M 48.6875 -64.667969 L 1.847656 -64.667969 L 1.847656 -58.019531 L 21.988281 -58.019531 L 21.988281 0 L 28.640625 0 L 28.640625 -58.019531 L 48.6875 -58.019531 Z M 48.6875 -64.667969 "/></g></g></g><path stroke-linecap="butt" transform="matrix(5.25626, 0, 0, 4.788598, 55.905099, 277.95423)" fill="none" stroke-linejoin="miter" d="M 0.000218933 -0.000230704 L 46.803047 -0.000230704 " stroke="#095092" stroke-width="1" stroke-opacity="1" stroke-miterlimit="4"/><g fill="#095092" fill-opacity="1"><g transform="translate(50.855876, 86.011419)"><g><path d="M 36.03125 -5.820312 C 21.433594 -5.820312 10.992188 -17.644531 10.992188 -32.242188 C 10.992188 -46.839844 21.433594 -58.664062 36.03125 -58.664062 C 44.898438 -58.664062 52.382812 -54.230469 56.816406 -47.578125 L 62.730469 -50.441406 C 57.1875 -59.402344 47.484375 -65.222656 36.03125 -65.222656 C 17.832031 -65.222656 4.15625 -50.441406 4.15625 -32.242188 C 4.15625 -14.042969 17.832031 0.738281 36.03125 0.738281 C 47.484375 0.738281 57.1875 -5.171875 62.730469 -14.042969 L 56.816406 -17 C 52.382812 -10.253906 44.898438 -5.820312 36.03125 -5.820312 Z M 36.03125 -5.820312 "/></g></g></g><g fill="#095092" fill-opacity="1"><g transform="translate(257.009637, 86.011419)"><g><path d="M 6.003906 -64.667969 L 6.003906 0 L 12.65625 0 L 12.65625 -64.667969 Z M 6.003906 -64.667969 "/></g></g></g></svg>