<svg xmlns="http://www.w3.org/2000/svg" xmlns:xlink="http://www.w3.org/1999/xlink" width="500" zoomAndPan="magnify" viewBox="0 0 375 374.999991" height="500" preserveAspectRatio="xMidYMid meet" version="1.0"><defs><g/><clipPath id="51dfee512d"><path d="M 58.753906 186 L 302.503906 186 L 302.503906 221.25 L 58.753906 221.25 Z M 58.753906 186 " clip-rule="nonzero"/></clipPath></defs><rect x="-37.5" width="450" fill="#ffffff" y="-37.499999" height="449.999989" fill-opacity="1"/><rect x="-37.5" width="450" fill="#ffffff" y="-37.499999" height="449.999989" fill-opacity="1"/><g fill="#095092" fill-opacity="1"><g transform="translate(0.123394, 286.516563)"><g><path d="M 90.261719 -122.324219 C 90.261719 -142.769531 77.367188 -163.214844 49.136719 -163.214844 C 23.8125 -163.214844 5.808594 -145.902344 5.808594 -122.902344 L 5.808594 -37.753906 C 5.808594 -12.546875 25.789062 2.554688 49.136719 2.554688 C 72.371094 2.554688 90.957031 -12.546875 90.957031 -37.753906 L 90.957031 -53.550781 C 90.957031 -57.039062 89.796875 -57.851562 87.125 -57.851562 L 65.402344 -57.851562 C 62.730469 -57.851562 61.917969 -56.804688 61.917969 -53.320312 L 61.917969 -39.496094 C 61.917969 -32.179688 57.851562 -25.441406 49.371094 -25.441406 C 41.355469 -25.441406 36.707031 -32.179688 36.707031 -39.496094 L 36.707031 -121.625 C 36.707031 -128.945312 41.820312 -135.332031 49.371094 -135.332031 C 57.039062 -135.332031 61.335938 -128.246094 61.335938 -121.394531 L 61.335938 -110.589844 C 61.335938 -107.335938 62.148438 -105.941406 64.9375 -105.941406 L 86.542969 -105.941406 C 89.5625 -105.941406 90.261719 -107.453125 90.261719 -111.054688 Z M 90.261719 -122.324219 "/></g></g></g><g fill="#095092" fill-opacity="1"><g transform="translate(107.391159, 286.516563)"><g><path d="M 39.265625 -156.242188 C 39.265625 -159.03125 38.101562 -160.773438 35.429688 -160.773438 L 12.199219 -160.773438 C 9.757812 -160.773438 8.363281 -159.03125 8.363281 -156.242188 L 8.363281 -4.414062 C 8.363281 -1.625 9.527344 0 12.199219 0 L 35.429688 0 C 38.101562 0 39.265625 -1.625 39.265625 -4.414062 Z M 39.265625 -156.242188 "/></g></g></g><g fill="#095092" fill-opacity="1"><g transform="translate(167.030953, 286.516563)"><g><path d="M 64.238281 -99.554688 C 64.238281 -91.65625 59.359375 -86.425781 50.066406 -86.425781 L 39.265625 -86.425781 L 39.265625 -132.546875 L 50.878906 -132.546875 C 58.894531 -132.546875 64.238281 -127.203125 64.238281 -118.835938 Z M 90.027344 -0.117188 C 93.164062 -0.117188 94.210938 -2.902344 94.210938 -4.996094 L 94.210938 -25.90625 C 94.210938 -49.136719 89.097656 -63.773438 78.644531 -72.605469 C 88.054688 -78.875 95.257812 -88.402344 95.257812 -102.226562 L 95.257812 -118.835938 C 95.257812 -141.953125 77.25 -160.773438 53.320312 -160.773438 L 12.3125 -160.773438 C 9.875 -160.773438 8.363281 -159.03125 8.363281 -156.242188 L 8.363281 -4.296875 C 8.363281 -1.625 9.527344 0 12.199219 0 L 35.429688 0 C 37.984375 0 39.265625 -1.625 39.265625 -4.296875 L 39.265625 -62.496094 C 55.179688 -61.453125 63.308594 -52.042969 63.308594 -29.621094 L 63.308594 -5.34375 C 63.308594 -1.859375 65.980469 -0.117188 68.652344 -0.117188 Z M 90.027344 -0.117188 "/></g></g></g><g fill="#095092" fill-opacity="1"><g transform="translate(280.455514, 286.516563)"><g><path d="M 77.484375 -132.546875 C 79.457031 -132.546875 80.851562 -133.9375 80.851562 -136.726562 L 80.851562 -156.589844 C 80.851562 -159.378906 79.457031 -160.773438 77.484375 -160.773438 L 3.253906 -160.773438 C 1.277344 -160.773438 -0.117188 -159.261719 -0.117188 -156.476562 L -0.117188 -136.726562 C -0.117188 -133.9375 1.277344 -132.546875 3.253906 -132.546875 L 24.859375 -132.546875 L 24.859375 -4.066406 C 24.859375 -1.394531 26.253906 0 28.226562 0 L 52.507812 0 C 54.367188 0 55.875 -1.394531 55.875 -4.066406 L 55.875 -132.546875 Z M 77.484375 -132.546875 "/></g></g></g><g clip-path="url(#51dfee512d)"><path fill="#ffffff" d="M 58.761719 186 L 302.496094 186 L 302.496094 221.25 L 58.761719 221.25 L 58.761719 186 " fill-opacity="1" fill-rule="nonzero"/></g><g fill="#095092" fill-opacity="1"><g transform="translate(101.259318, 215.813717)"><g><path d="M 18.453125 0.5625 C 12.046875 0.5625 7.539062 -0.765625 4.9375 -3.421875 C 2.738281 -5.648438 1.640625 -8.875 1.640625 -13.09375 L 1.640625 -26.21875 L 12.65625 -26.21875 L 12.65625 -13.09375 C 12.65625 -11.257812 12.96875 -9.816406 13.59375 -8.765625 C 14.476562 -7.234375 16.097656 -6.46875 18.453125 -6.46875 C 20.828125 -6.46875 22.453125 -7.234375 23.328125 -8.765625 C 23.953125 -9.859375 24.265625 -11.300781 24.265625 -13.09375 L 24.265625 -26.21875 L 35.28125 -26.21875 L 35.28125 -12.953125 C 35.28125 -8.828125 34.1875 -5.648438 32 -3.421875 C 29.382812 -0.765625 24.867188 0.5625 18.453125 0.5625 Z M 18.453125 0.5625 "/></g></g></g><g fill="#095092" fill-opacity="1"><g transform="translate(157.471651, 215.813717)"><g><path d="M 19.84375 0.5625 C 13.351562 0.5625 8.578125 -0.769531 5.515625 -3.4375 C 2.816406 -5.789062 1.46875 -9.007812 1.46875 -13.09375 C 1.46875 -17.175781 2.816406 -20.398438 5.515625 -22.765625 C 8.578125 -25.421875 13.351562 -26.75 19.84375 -26.75 C 23.644531 -26.75 26.789062 -26.3125 29.28125 -25.4375 C 31.769531 -24.570312 33.703125 -23.382812 35.078125 -21.875 C 36.453125 -20.363281 37.363281 -18.628906 37.8125 -16.671875 L 26.25 -16.671875 C 25.082031 -18.710938 22.945312 -19.734375 19.84375 -19.734375 C 17.1875 -19.734375 15.226562 -18.960938 13.96875 -17.421875 C 12.96875 -16.203125 12.46875 -14.757812 12.46875 -13.09375 C 12.46875 -11.425781 12.96875 -9.984375 13.96875 -8.765625 C 15.226562 -7.222656 17.1875 -6.453125 19.84375 -6.453125 C 22.945312 -6.453125 25.082031 -7.476562 26.25 -9.53125 L 37.8125 -9.53125 C 37.363281 -7.5625 36.453125 -5.820312 35.078125 -4.3125 C 33.703125 -2.800781 31.769531 -1.609375 29.28125 -0.734375 C 26.789062 0.128906 23.644531 0.5625 19.84375 0.5625 Z M 19.84375 0.5625 "/></g></g></g><g fill="#095092" fill-opacity="1"><g transform="translate(216.043093, 215.813717)"><g><path d="M 52.8125 0 L 41.8125 0 L 41.8125 -16.734375 L 31.96875 0 L 23.75 0 L 13.9375 -16.734375 L 13.9375 0 L 2.921875 0 L 2.921875 -26.25 L 16 -26.25 L 27.875 -7.5 L 39.71875 -26.25 L 52.8125 -26.25 Z M 52.8125 0 "/></g></g></g><path stroke-linecap="butt" transform="matrix(1.499317, 0, 0, 1.5, 94.229266, 186.749988)" fill="none" stroke-linejoin="miter" d="M 0.00080199 0.0000081755 L 120.058097 0.0000081755 " stroke="#000000" stroke-width="1" stroke-opacity="1" stroke-miterlimit="4"/><path stroke-linecap="butt" transform="matrix(1.499317, 0, 0, 1.5, 94.229266, 220.127446)" fill="none" stroke-linejoin="miter" d="M 0.00080199 0.000973803 L 120.058097 0.000973803 " stroke="#000000" stroke-width="1" stroke-opacity="1" stroke-miterlimit="4"/></svg>