<svg xmlns="http://www.w3.org/2000/svg" xmlns:xlink="http://www.w3.org/1999/xlink" width="1000" zoomAndPan="magnify" viewBox="0 0 750 749.999995" height="1000" preserveAspectRatio="xMidYMid meet" version="1.0"><defs><clipPath id="a2a14d5ab6"><path d="M 169 172.359375 L 581 172.359375 L 581 577.359375 L 169 577.359375 Z M 169 172.359375 " clip-rule="nonzero"/></clipPath></defs><rect x="-75" width="900" fill="#ffffff" y="-74.999999" height="899.999994" fill-opacity="1"/><rect x="-75" width="900" fill="#ffffff" y="-74.999999" height="899.999994" fill-opacity="1"/><g clip-path="url(#a2a14d5ab6)"><path fill="#daa900" d="M 189.359375 292.800781 L 285.167969 292.800781 C 287.960938 292.800781 290.644531 291.628906 292.535156 289.59375 C 294.429688 287.554688 295.394531 284.789062 295.1875 282.003906 C 293.515625 259.753906 279.199219 241.078125 259.660156 232.824219 C 266.972656 226.519531 271.617188 217.199219 271.617188 206.804688 C 271.617188 187.863281 256.207031 172.453125 237.265625 172.453125 C 218.324219 172.453125 202.910156 187.863281 202.910156 206.804688 C 202.910156 217.195312 207.554688 226.519531 214.871094 232.824219 C 195.332031 241.078125 181.011719 259.753906 179.34375 282.003906 C 179.136719 284.785156 180.101562 287.550781 181.992188 289.589844 C 183.882812 291.628906 186.570312 292.800781 189.359375 292.800781 Z M 215.796875 206.804688 C 215.796875 194.96875 225.425781 185.335938 237.265625 185.335938 C 249.101562 185.335938 258.730469 194.96875 258.730469 206.804688 C 258.730469 218.640625 249.101562 228.273438 237.265625 228.273438 C 225.425781 228.273438 215.796875 218.644531 215.796875 206.804688 Z M 237.265625 241.160156 C 259.746094 241.160156 278.835938 257.949219 282 279.914062 L 192.527344 279.914062 C 195.695312 257.949219 214.78125 241.160156 237.265625 241.160156 Z M 460.296875 289.3125 C 460.089844 292.097656 461.054688 294.863281 462.945312 296.902344 C 464.835938 298.9375 467.523438 300.109375 470.316406 300.109375 L 566.121094 300.109375 C 568.914062 300.109375 571.597656 298.9375 573.492188 296.902344 C 575.382812 294.863281 576.347656 292.097656 576.136719 289.3125 C 574.46875 267.0625 560.152344 248.386719 540.613281 240.132812 C 547.925781 233.828125 552.570312 224.507812 552.570312 214.117188 C 552.570312 195.171875 537.160156 179.765625 518.21875 179.765625 C 499.277344 179.765625 483.867188 195.171875 483.867188 214.117188 C 483.867188 224.507812 488.511719 233.828125 495.824219 240.132812 C 476.285156 248.386719 461.96875 267.0625 460.296875 289.3125 Z M 496.75 214.117188 C 496.75 202.277344 506.382812 192.648438 518.21875 192.648438 C 530.054688 192.648438 539.6875 202.277344 539.6875 214.117188 C 539.6875 225.953125 530.054688 235.582031 518.21875 235.582031 C 506.382812 235.582031 496.75 225.953125 496.75 214.117188 Z M 518.21875 248.46875 C 540.703125 248.46875 559.789062 265.257812 562.957031 287.222656 L 473.480469 287.222656 C 476.648438 265.253906 495.734375 248.46875 518.21875 248.46875 Z M 295.1875 558.507812 C 293.515625 536.261719 279.199219 517.582031 259.660156 509.328125 C 266.972656 503.027344 271.617188 493.703125 271.617188 483.3125 C 271.617188 464.371094 256.207031 448.960938 237.265625 448.960938 C 218.320312 448.960938 202.910156 464.371094 202.910156 483.3125 C 202.910156 493.703125 207.554688 503.027344 214.871094 509.328125 C 195.328125 517.582031 181.011719 536.257812 179.34375 558.507812 C 179.136719 561.292969 180.101562 564.058594 181.992188 566.097656 C 183.882812 568.136719 186.570312 569.304688 189.359375 569.304688 L 285.167969 569.304688 C 287.957031 569.304688 290.644531 568.136719 292.535156 566.097656 C 294.429688 564.058594 295.394531 561.292969 295.183594 558.511719 C 295.1875 558.507812 295.1875 558.507812 295.1875 558.507812 Z M 215.796875 483.3125 C 215.796875 471.476562 225.425781 461.84375 237.265625 461.84375 C 249.101562 461.84375 258.730469 471.476562 258.730469 483.3125 C 258.730469 495.144531 249.109375 504.769531 237.28125 504.78125 C 237.273438 504.78125 237.269531 504.78125 237.265625 504.78125 C 237.257812 504.78125 237.253906 504.78125 237.25 504.78125 C 225.417969 504.769531 215.796875 495.144531 215.796875 483.3125 Z M 192.527344 556.421875 C 195.695312 534.460938 214.769531 517.671875 237.25 517.664062 C 237.253906 517.664062 237.257812 517.664062 237.265625 517.664062 C 237.269531 517.664062 237.273438 517.664062 237.28125 517.664062 C 259.757812 517.671875 278.835938 534.460938 282 556.421875 Z M 540.613281 509.328125 C 547.925781 503.027344 552.570312 493.703125 552.570312 483.3125 C 552.570312 464.371094 537.160156 448.960938 518.21875 448.960938 C 499.277344 448.960938 483.867188 464.371094 483.867188 483.3125 C 483.867188 493.703125 488.511719 503.023438 495.824219 509.328125 C 476.285156 517.582031 461.964844 536.261719 460.296875 558.507812 C 460.089844 561.292969 461.054688 564.058594 462.945312 566.097656 C 464.835938 568.136719 467.523438 569.304688 470.316406 569.304688 L 566.121094 569.304688 C 568.914062 569.304688 571.597656 568.136719 573.492188 566.097656 C 575.382812 564.058594 576.347656 561.292969 576.136719 558.507812 C 574.46875 536.261719 560.152344 517.582031 540.613281 509.328125 Z M 496.75 483.3125 C 496.75 471.476562 506.382812 461.84375 518.21875 461.84375 C 530.054688 461.84375 539.6875 471.476562 539.6875 483.3125 C 539.6875 495.144531 530.0625 504.769531 518.234375 504.78125 C 518.226562 504.78125 518.222656 504.78125 518.21875 504.78125 C 518.210938 504.78125 518.207031 504.78125 518.203125 504.78125 C 506.371094 504.769531 496.75 495.144531 496.75 483.3125 Z M 473.480469 556.421875 C 476.648438 534.460938 495.726562 517.671875 518.203125 517.664062 C 518.207031 517.664062 518.210938 517.664062 518.21875 517.664062 C 518.222656 517.664062 518.230469 517.664062 518.234375 517.664062 C 540.710938 517.671875 559.789062 534.460938 562.957031 556.421875 Z M 450.242188 548.8125 C 451.472656 552.152344 449.765625 555.855469 446.425781 557.089844 C 424.457031 565.195312 401.347656 569.304688 377.742188 569.304688 C 360.609375 569.304688 343.734375 567.132812 327.367188 562.84375 L 330.554688 567.425781 C 332.589844 570.34375 331.871094 574.359375 328.949219 576.394531 C 327.828125 577.175781 326.542969 577.550781 325.273438 577.550781 C 323.234375 577.550781 321.234375 576.585938 319.980469 574.785156 L 306.003906 554.707031 C 304.925781 553.160156 304.582031 551.214844 305.0625 549.386719 C 305.542969 547.5625 306.800781 546.039062 308.5 545.21875 L 330.550781 534.625 C 333.757812 533.085938 337.609375 534.4375 339.148438 537.640625 C 340.6875 540.847656 339.339844 544.699219 336.128906 546.238281 L 328.632812 549.84375 C 344.5625 554.207031 361.019531 556.421875 377.742188 556.421875 C 399.820312 556.421875 421.425781 552.578125 441.964844 545 C 445.304688 543.769531 449.011719 545.476562 450.242188 548.8125 Z M 282.46875 204.042969 C 280.808594 200.898438 282.011719 197 285.15625 195.335938 C 313.484375 180.367188 345.5 172.453125 377.742188 172.453125 C 404.023438 172.453125 430.132812 177.710938 454.238281 187.761719 L 451.710938 182.769531 C 450.101562 179.597656 451.371094 175.71875 454.542969 174.109375 C 457.71875 172.5 461.59375 173.769531 463.203125 176.945312 L 474.261719 198.765625 C 475.117188 200.449219 475.1875 202.425781 474.457031 204.167969 C 473.730469 205.90625 472.273438 207.242188 470.472656 207.816406 L 447.167969 215.253906 C 446.515625 215.460938 445.855469 215.558594 445.207031 215.558594 C 442.480469 215.558594 439.945312 213.8125 439.070312 211.074219 C 437.992188 207.683594 439.859375 204.058594 443.25 202.976562 L 451.140625 200.460938 C 428.085938 190.546875 403.003906 185.339844 377.742188 185.339844 C 347.589844 185.339844 317.65625 192.734375 291.175781 206.730469 C 288.03125 208.390625 284.132812 207.1875 282.46875 204.042969 Z M 179.316406 370.878906 C 179.316406 355.707031 181.027344 340.707031 184.402344 326.089844 L 179.910156 329.414062 C 177.050781 331.527344 173.015625 330.925781 170.898438 328.066406 C 168.78125 325.207031 169.386719 321.171875 172.246094 319.054688 L 191.910156 304.503906 C 193.425781 303.378906 195.363281 302.976562 197.203125 303.40625 C 199.039062 303.832031 200.601562 305.046875 201.464844 306.722656 L 212.695312 328.457031 C 214.332031 331.617188 213.09375 335.503906 209.929688 337.136719 C 208.984375 337.625 207.972656 337.859375 206.980469 337.859375 C 204.644531 337.859375 202.394531 336.585938 201.25 334.371094 L 197.429688 326.976562 C 193.957031 341.28125 192.199219 355.988281 192.199219 370.878906 C 192.199219 396.339844 197.273438 421.023438 207.277344 444.234375 C 208.683594 447.503906 207.175781 451.292969 203.910156 452.699219 C 203.078125 453.058594 202.214844 453.226562 201.363281 453.226562 C 198.867188 453.226562 196.492188 451.769531 195.441406 449.332031 C 184.742188 424.5 179.316406 398.105469 179.316406 370.878906 Z M 577.234375 442.414062 L 556.246094 454.988281 C 555.238281 455.597656 554.089844 455.90625 552.9375 455.90625 C 552.242188 455.90625 551.546875 455.792969 550.875 455.566406 C 549.085938 454.964844 547.652344 453.605469 546.953125 451.851562 L 537.886719 429.128906 C 536.566406 425.824219 538.175781 422.078125 541.480469 420.757812 C 544.785156 419.441406 548.535156 421.046875 549.851562 424.355469 L 552.933594 432.078125 C 559.800781 412.472656 563.28125 391.945312 563.28125 370.878906 C 563.28125 353.183594 560.785156 335.660156 555.859375 318.789062 C 554.863281 315.371094 556.820312 311.792969 560.238281 310.796875 C 563.652344 309.804688 567.230469 311.761719 568.226562 315.175781 C 573.496094 333.222656 576.167969 351.964844 576.167969 370.878906 C 576.167969 392.652344 572.6875 413.894531 565.824219 434.230469 L 570.609375 431.363281 C 573.660156 429.53125 577.617188 430.523438 579.449219 433.578125 C 581.277344 436.628906 580.285156 440.585938 577.234375 442.414062 Z M 487.988281 443.417969 C 488.746094 443.417969 489.515625 443.34375 490.289062 443.1875 L 516.992188 437.867188 C 523.351562 436.601562 527.492188 430.398438 526.226562 424.039062 L 505.476562 319.882812 C 504.863281 316.808594 503.085938 314.152344 500.472656 312.40625 C 497.855469 310.660156 494.722656 310.035156 491.648438 310.648438 L 464.945312 315.964844 C 461.871094 316.578125 459.214844 318.355469 457.46875 320.972656 C 455.769531 323.515625 455.144531 326.550781 455.675781 329.546875 C 440.402344 334.296875 421.949219 335.085938 399.132812 316.261719 C 387.441406 306.617188 372.179688 306.320312 361.15625 315.523438 L 350.835938 324.140625 L 294.015625 324.140625 C 292.804688 320.105469 289.464844 316.84375 285.054688 315.96875 L 258.351562 310.648438 C 255.277344 310.035156 252.144531 310.660156 249.527344 312.40625 C 246.914062 314.152344 245.136719 316.808594 244.523438 319.882812 L 223.773438 424.042969 C 222.507812 430.398438 226.648438 436.601562 233.007812 437.867188 L 259.710938 443.1875 C 260.480469 443.34375 261.25 443.417969 262.011719 443.417969 C 266.691406 443.414062 270.953125 440.589844 272.800781 436.296875 L 334.054688 497.550781 C 338.140625 501.636719 343.589844 503.886719 349.398438 503.886719 C 355.207031 503.886719 360.65625 501.636719 364.738281 497.550781 C 366.921875 495.371094 368.578125 492.800781 369.652344 489.996094 L 376.398438 496.742188 C 384.859375 505.203125 398.625 505.203125 407.085938 496.742188 C 409.363281 494.464844 411.027344 491.800781 412.078125 488.960938 C 415.804688 491.761719 420.324219 493.273438 425.089844 493.273438 C 430.894531 493.273438 436.347656 491.023438 440.433594 486.933594 C 444.492188 482.875 446.742188 477.46875 446.769531 471.703125 C 452.289062 471.675781 457.804688 469.5625 462.007812 465.359375 C 467.476562 459.890625 469.507812 451.847656 467.628906 444.523438 L 476.828125 435.320312 C 478.414062 440.160156 482.960938 443.417969 487.988281 443.417969 Z M 493.058594 323.503906 L 513.367188 425.453125 L 488.878906 430.332031 L 468.570312 328.382812 Z M 369.414062 325.414062 C 375.625 320.230469 384.070312 320.539062 390.933594 326.203125 C 417.835938 348.398438 440.523438 347.496094 458.195312 342.257812 L 473.722656 420.207031 L 460.1875 433.742188 L 398.699219 371.359375 C 398.617188 371.273438 398.53125 371.195312 398.449219 371.117188 C 385.238281 359.082031 373.089844 353.886719 365.121094 356.863281 C 361.082031 358.367188 358.464844 361.789062 357.9375 366.25 C 357.933594 366.296875 357.925781 366.351562 357.921875 366.402344 C 357.796875 367.742188 357.675781 369.082031 357.558594 370.414062 C 356.097656 387.050781 354.992188 399.574219 339.691406 405.839844 L 330.339844 362.972656 C 329.585938 359.523438 331.699219 356.902344 333.609375 355.308594 Z M 261.121094 430.332031 L 236.632812 425.449219 L 256.941406 323.503906 L 281.429688 328.382812 Z M 452.898438 456.246094 C 449.460938 459.683594 443.871094 459.683594 440.433594 456.246094 L 395.003906 410.820312 C 392.492188 408.304688 388.410156 408.304688 385.894531 410.820312 C 383.378906 413.335938 383.378906 417.414062 385.894531 419.929688 L 431.324219 465.359375 C 434.757812 468.796875 434.757812 474.386719 431.324219 477.824219 C 429.671875 479.476562 427.457031 480.386719 425.089844 480.386719 C 422.722656 480.386719 420.511719 479.476562 418.859375 477.824219 L 370.855469 429.824219 C 368.339844 427.308594 364.261719 427.308594 361.746094 429.824219 C 359.230469 432.339844 359.230469 436.417969 361.746094 438.933594 L 397.976562 475.167969 C 401.414062 478.601562 401.414062 484.195312 397.976562 487.632812 C 394.539062 491.070312 388.949219 491.070312 385.511719 487.632812 L 346.707031 448.828125 C 344.191406 446.3125 340.113281 446.3125 337.59375 448.828125 C 335.078125 451.34375 335.078125 455.421875 337.59375 457.9375 L 355.632812 475.976562 C 357.285156 477.628906 358.195312 479.839844 358.195312 482.207031 C 358.195312 484.570312 357.285156 486.785156 355.632812 488.4375 C 353.980469 490.089844 351.765625 491.003906 349.398438 491 C 347.035156 491 344.820312 490.089844 343.167969 488.4375 L 276.054688 421.328125 L 292.847656 337.023438 L 335.40625 337.023438 L 325.355469 345.417969 C 318.886719 350.816406 316.113281 358.21875 317.753906 365.722656 L 328.613281 415.492188 C 328.984375 417.191406 330.023438 418.667969 331.5 419.589844 C 332.976562 420.507812 334.757812 420.789062 336.449219 420.375 C 366.757812 412.90625 368.691406 390.933594 370.398438 371.542969 C 370.476562 370.675781 370.550781 369.808594 370.628906 368.933594 C 373.507812 369.273438 380.398438 372.136719 389.644531 380.527344 L 454.792969 446.628906 C 456.132812 449.886719 455.410156 453.738281 452.898438 456.246094 Z M 452.898438 456.246094 " fill-opacity="1" fill-rule="nonzero"/></g></svg>